<!DOCTYPE svg PUBLIC "-//W3C//DTD SVG 1.1//EN" "http://www.w3.org/Graphics/SVG/1.1/DTD/svg11.dtd">
<!-- Uploaded to: SVG Repo, www.svgrepo.com, Transformed by: SVG Repo Mixer Tools -->
<svg fill="#5332cd" version="1.1" id="Capa_1" xmlns="http://www.w3.org/2000/svg" xmlns:xlink="http://www.w3.org/1999/xlink" width="164px" height="164px" viewBox="-17.6 -17.6 115.20 115.20" xml:space="preserve" stroke="#5332cd" stroke-width="0.0008">
<g id="SVGRepo_bgCarrier" stroke-width="0"/>
<g id="SVGRepo_tracerCarrier" stroke-linecap="round" stroke-linejoin="round"/>
<g id="SVGRepo_iconCarrier"> <g> <g> <path d="M56.062,26.134H25.256v28.161h30.807V26.134z M35.737,34.38c0-0.358,0.191-0.688,0.502-0.867 c0.312-0.178,0.694-0.176,1.002,0.004l8.188,4.779c0.308,0.179,0.496,0.508,0.496,0.863s-0.188,0.685-0.496,0.863l-8.188,4.782 c-0.155,0.091-0.33,0.138-0.504,0.138c-0.172,0-0.344-0.045-0.498-0.134c-0.311-0.178-0.502-0.509-0.502-0.866V34.38z M53.684,51.467H29.835v0.262c0,0.553-0.447,1-1,1c-0.553,0-1-0.447-1-1v-0.262h-0.201c-0.553,0-1-0.447-1-1s0.447-1,1-1h0.201 v-0.602c0-0.554,0.447-1,1-1c0.553,0,1,0.446,1,1v0.602h23.849c0.554,0,1,0.447,1,1S54.237,51.467,53.684,51.467z"/> <path d="M40,80c22.092,0,40-17.908,40-40C80,17.909,62.092,0,40,0S0,17.909,0,40C0,62.092,17.909,80,40,80z M23.256,25.134 c0-0.553,0.447-1,1-1h32.807c0.553,0,1,0.447,1,1v30.161c0,0.553-0.447,1-1,1H24.256c-0.553,0-1-0.447-1-1V25.134z"/> </g> </g> </g>
</svg>